/* XPM */
static char *c2FuZA__[] = {
/* columns rows colors chars-per-pixel */
"96 128 4 1 ",
"  c white",
". c #9FA5BD",
"X c #A0A6BE",
"o c #A1A6BE",
/* pixels */
"                                                                                                ",
"                                                                                                ",
"                                                                                                ",
"                                                                                                ",
"                                                                                                ",
"     ......................................................................................     ",
"     ......................................................................................     ",
"     ......................................................................................     ",
"     ......................................................................................     ",
"     ......................................................................................     ",
"     ......................................................................................     ",
"     ......................................................................................     ",
"     ......................................................................................     ",
"     ......................................................................................     ",
"     ......................................................................................     ",
"     ......................................................................................     ",
"     ......................................................................................     ",
"     ......................................................................................     ",
"     ......................................................................................     ",
"     ......................................................................................     ",
"     ......................................................................................     ",
"     ......................................................................................     ",
"     ......................................................................................     ",
"     ......................................................................................     ",
"     ......................................................................................     ",
"     ......................................................................................     ",
"     ......................................................................................     ",
"     ......................................................................................     ",
"     ......................................................................................     ",
"     ......................................................................................     ",
"     ......................................................................................     ",
"     ......................................................................................     ",
"     ......................................................................................     ",
"     ......................................................................................     ",
"     ......................................................................................     ",
"     ......................................................................................     ",
"     ......................................................................................     ",
"     ......................................................................................     ",
"     ......................................................................................     ",
"     ......................................................................................     ",
"     ......................................................................................     ",
"     ......................................................................................     ",
"     ......................................................................................     ",
"     ......................................................................................     ",
"     ......................................................................................     ",
"     ......................................................................................     ",
"     ......................................................................................     ",
"     ......................................................................................     ",
"     ......................................................................................     ",
"     ......................................................................................     ",
"     ......................................................................................     ",
"     ......................................................................................     ",
"     ......................................................................................     ",
"     ......................................................................................     ",
"     ......................................................................................     ",
"     ......................................................................................     ",
"     ......................................................................................     ",
"     ......................................................................................     ",
"     ......................................................................................     ",
"     ......................................................................................     ",
"     ......................................................................................     ",
"     ......................................................................................     ",
"     ......................................................................................     ",
"     ......................................................................................     ",
"     ......................................................................................     ",
"     ......................................................................................     ",
"     ......................................................................................     ",
"     ......................................................................................     ",
"     ......................................................................................     ",
"     ......................................................................................     ",
"     ......................................................................................     ",
"     ......................................................................................     ",
"     ......................................................................................     ",
"     ......................................................................................     ",
"     ......................................................................................     ",
"     ......................................................................................     ",
"     ......................................................................................     ",
"     ......................................................................................     ",
"     ......................................................................................     ",
"     ......................................................................................     ",
"     ......................................................................................     ",
"     ......................................................................................     ",
"     ......................................................................................     ",
"     ......................................................................................     ",
"     ......................................................................................     ",
"     ......................................................................................     ",
"     ......................................................................................     ",
"     ........................................X.............................................     ",
"     ...................................XoX................................................     ",
"     ..............................XooX....................................................     ",
"     ............................XX........................................................     ",
"     .........................X............................................................     ",
"     ......................................................................................     ",
"     ......................................................................................     ",
"     ......................................................................................     ",
"     ......................................................................................     ",
"     ......................................................................................     ",
"     ......................................................................................     ",
"     ......................................................................................     ",
"     ......................................................................................     ",
"     ......................................................................................     ",
"     ......................................................................................     ",
"     ......................................................................................     ",
"     ......................................................................................     ",
"     ......................................................................................     ",
"     ......................................................................................     ",
"     ......................................................................................     ",
"     ......................................................................................     ",
"     ......................................................................................     ",
"     ......................................................................................     ",
"     ......................................................................................     ",
"     ......................................................................................     ",
"     ......................................................................................     ",
"     ......................................................................................     ",
"     ......................................................................................     ",
"     ......................................................................................     ",
"     ......................................................................................     ",
"     ......................................................................................     ",
"     ......................................................................................     ",
"     ......................................................................................     ",
"     ......................................................................................     ",
"     ......................................................................................     ",
"     ......................................................................................     ",
"                                                                                                ",
"                                                                                                ",
"                                                                                                ",
"                                                                                                ",
"                                                                                                "
};
