/* XPM */
static char *d2FsbA__[] = {
/* columns rows colors chars-per-pixel */
"96 128 3 1 ",
"  c #2C2C2C",
". c #747474",
"X c #2D2D2D",
/* pixels */
"                                                                                                ",
"                                                                                                ",
"                                                                                                ",
"                                                                                                ",
"                                                                                                ",
"                                                                                                ",
"                                                                                                ",
"                                                                                                ",
"                                                                                                ",
"        ...............................................................................         ",
"        ...............................................................................         ",
"        ...............................................................................         ",
"        ...............................................................................         ",
"        ...............................................................................         ",
"        ...............................................................................         ",
"        ...............................................................................         ",
"        ...............................................................................         ",
"        ...............................................................................         ",
"        ...............................................................................         ",
"        ...............................................................................         ",
"        ...............................................................................         ",
"        ...............................................................................         ",
"        ...............................................................................         ",
"        ...............................................................................         ",
"        ...............................................................................         ",
"        ...............................................................................         ",
"        ...............................................................................         ",
"        ...............................................................................         ",
"        ...............................................................................         ",
"        ...............................................................................         ",
"        ...............................................................................         ",
"        ...............................................................................         ",
"        ...............................................................................         ",
"        ...............................................................................         ",
"        ...............................................................................         ",
"        ...............................................................................         ",
"        ...............................................................................         ",
"        ...............................................................................         ",
"        ...............................................................................         ",
"        ...............................................................................         ",
"        ...............................................................................         ",
"        ...............................................................................         ",
"        ...............................................................................         ",
"        ...............................................................................         ",
"        ...............................................................................         ",
"        ...............................................................................         ",
"        ...............................................................................         ",
"        ...............................................................................         ",
"        ...............................................................................         ",
"        ...............................................................................         ",
"        ...............................................................................         ",
"        ...............................................................................         ",
"        ...............................................................................         ",
"        ...............................................................................         ",
"        ...............................................................................         ",
"        ...............................................................................         ",
"        ...............................................................................         ",
"        ...............................................................................         ",
"        ...............................................................................         ",
"        ...............................................................................         ",
"        ...............................................................................         ",
"        ...............................................................................         ",
"        ...............................................................................         ",
"        ...............................................................................         ",
"        ...............................................................................         ",
"        ...............................................................................         ",
"        ...............................................................................         ",
"        ...............................................................................         ",
"        ...............................................................................         ",
"        ...............................................................................         ",
"        ...............................................................................         ",
"        ...............................................................................         ",
"        ...............................................................................         ",
"        ...............................................................................         ",
"        ...............................................................................         ",
"        ...............................................................................         ",
"        ...............................................................................         ",
"        ...............................................................................         ",
"        ...............................................................................         ",
"        ...............................................................................         ",
"        ...............................................................................         ",
"        ...............................................................................         ",
"        ...............................................................................         ",
"        ...............................................................................         ",
"        ...............................................................................         ",
"        ...............................................................................         ",
"        ...............................................................................         ",
"        ...............................................................................         ",
"        ...............................................................................         ",
"        ...............................................................................         ",
"        ...............................................................................         ",
"        ...............................................................................         ",
"        ...............................................................................         ",
"        ...............................................................................         ",
"        ...............................................................................         ",
"        ...............................................................................         ",
"        ...............................................................................         ",
"        ...............................................................................         ",
"        ...............................................................................         ",
"        ...............................................................................         ",
"        ...............................................................................         ",
"        ...............................................................................         ",
"        ...............................................................................         ",
"        ...............................................................................         ",
"        ...............................................................................         ",
"        ...............................................................................         ",
"        ...............................................................................         ",
"        ...............................................................................         ",
"        ...............................................................................         ",
"        ...............................................................................         ",
"        ...............................................................................         ",
"        ...............................................................................         ",
"        ...............................................................................         ",
"        ...............................................................................         ",
"        ...............................................................................         ",
"        ...............................................................................         ",
"        ...............................................................................         ",
"        ...............................................................................   X     ",
"        ...............................................................................         ",
"                                                                                                ",
"                                                                                                ",
"                                                                                                ",
"                                                                                                ",
"                                                                                                ",
"                                                                                                ",
"                                                                                                ",
"                                                                                                ",
"                                                                                                "
};
